<svg xmlns="http://www.w3.org/2000/svg" width="25.07" height="25.07" viewBox="0 0 25.07 25.07">
  <path id="check_circle_24dp_4285F4_FILL0_wght400_GRAD0_opsz24" d="M90.78-861.7l8.837-8.837-1.755-1.755-7.082,7.082-3.573-3.573-1.755,1.755Zm1.755,6.769a12.207,12.207,0,0,1-4.889-.987,12.659,12.659,0,0,1-3.98-2.679,12.659,12.659,0,0,1-2.679-3.98A12.206,12.206,0,0,1,80-867.465a12.206,12.206,0,0,1,.987-4.889,12.659,12.659,0,0,1,2.679-3.98,12.659,12.659,0,0,1,3.98-2.679A12.206,12.206,0,0,1,92.535-880a12.206,12.206,0,0,1,4.889.987,12.659,12.659,0,0,1,3.98,2.679,12.659,12.659,0,0,1,2.679,3.98,12.206,12.206,0,0,1,.987,4.889,12.206,12.206,0,0,1-.987,4.889,12.659,12.659,0,0,1-2.679,3.98,12.659,12.659,0,0,1-3.98,2.679A12.207,12.207,0,0,1,92.535-854.93Zm0-2.507a9.678,9.678,0,0,0,7.114-2.914,9.678,9.678,0,0,0,2.914-7.114,9.679,9.679,0,0,0-2.914-7.114,9.678,9.678,0,0,0-7.114-2.914,9.678,9.678,0,0,0-7.114,2.914,9.679,9.679,0,0,0-2.914,7.114,9.678,9.678,0,0,0,2.914,7.114A9.678,9.678,0,0,0,92.535-857.437ZM92.535-867.465Z" transform="translate(-80 880)" fill="#fa0060"/>
</svg>
